<svg id="Livello_1" data-name="Livello 1" xmlns="http://www.w3.org/2000/svg" viewBox="0 0 143.95 137.32">
  <defs>
    <style>
      .cls-1 {
        stroke: #000;
        stroke-miterlimit: 10;
      }
    </style>
  </defs>
  <path class="cls-1" d="M193.21,252.74l19.23,39a3.69,3.69,0,0,0,2.78,2l43,6.25a3.69,3.69,0,0,1,2,6.29l-31.11,30.33a3.68,3.68,0,0,0-1.06,3.27l7.35,42.82a3.69,3.69,0,0,1-5.36,3.89l-38.46-20.22a3.71,3.71,0,0,0-3.43,0l-38.46,20.22a3.69,3.69,0,0,1-5.35-3.89l7.34-42.82a3.68,3.68,0,0,0-1.06-3.27l-31.11-30.33a3.69,3.69,0,0,1,2-6.29l43-6.25a3.69,3.69,0,0,0,2.78-2l19.23-39A3.69,3.69,0,0,1,193.21,252.74Z" transform="translate(-117.93 -250.19)"/>
</svg>
